<svg xmlns="http://www.w3.org/2000/svg" viewBox="0 0 128 128" aria-hidden="true" focusable="false">
  <path fill="#1572B6" d="M19 0h90L99.6 106.6 64 117 28.4 106.6z"/>
  <path fill="#33A9DC" d="M64 107.1 92.8 99 100.8 10H64z"/>
  <path fill="#fff" d="M64 57.7H49.6l-1-11.6H64V34.8H36.3l.3 3.1 3 33.1H64zm0 28.4-.1.1-12.2-3.3-.8-9.1H39.8l1.5 17.4 22.6 6.3h.1z"/>
  <path fill="#EBEBEB" d="M64 57.7V46.1h15.1l-1.4 15.6H64v11.6h12.8l-1.2 9.6L64 86.1V98l22.7-6.3.2-1.9 2.4-26.8.2-2.9.2-2.4 3.1-34.5H64v11.6h16.3l-1 11.6z"/>
</svg>
