<svg xmlns="http://www.w3.org/2000/svg" viewBox="0 0 256 272" aria-hidden="true" focusable="false">
  <path fill="#83CD29" d="M127.9 0 10.7 67.8v135.8L127.9 272l117.2-68.4V67.8z"/>
  <path fill="#fff" d="M131.5 196.1c-30.5 0-36.9-14-36.9-25.7 0-1.2.9-2.1 2.1-2.1h17.9c1 0 1.8.7 2 1.6 2.7 11.9 7 17.9 14.9 17.9 6.4 0 9.1-2.9 9.1-6.8 0-4.7-1.9-6.5-12.4-11.2-8.8-4-20.2-9.1-20.2-24.1 0-13.8 10.5-22 26.8-22 18.4 0 27.5 8.8 28.7 27.6.1 1.2-.9 2.2-2.1 2.2h-18c-1 0-1.8-.7-2-1.6-1.9-8.4-5-12.3-11.6-12.3-5.2 0-8.3 2.3-8.3 6.2 0 4.3 2.3 5.6 13.1 10.5 10.6 4.8 19.6 9.5 19.6 24.8 0 14.3-11.2 22.9-30.7 22.9z"/>
</svg>
