<svg xmlns="http://www.w3.org/2000/svg" viewBox="0 0 128 128" aria-hidden="true" focusable="false">
  <rect width="128" height="128" rx="14" fill="#3178C6" />
  <path fill="#fff" d="M79.5 45.3h-35v10h12.5V93h10V55.3h12.5zm16.2 0c-10.8 0-17.7 5.4-17.7 13.9 0 7.3 4.4 11.1 14 13.7l3.9 1.1c4.2 1.1 5.9 2.3 5.9 4.5 0 2.9-2.6 4.8-6.5 4.8-4.6 0-7.7-2-10.2-6.4l-8.7 5.2c3.7 7 10 10.6 18.6 10.6 10.9 0 18.4-5.8 18.4-14.7 0-7.5-4.4-11.2-14.5-13.8l-3.7-1c-4-1-5.6-2.1-5.6-4.2 0-2.4 2.2-4 5.6-4 3.9 0 6.2 1.6 8.6 5.2l8.4-5.8c-3.7-6.2-9-9.1-16.5-9.1z"/>
</svg>
